<svg width="19" height="21" viewBox="0 0 19 21" fill="none" xmlns="http://www.w3.org/2000/svg">
<path d="M1.00012 0.947266H17.0001C18.1001 0.947266 19.0001 1.84727 19.0001 2.94727V20.9473L15.0001 16.9473H1.00012C-0.0998783 16.9473 -0.999878 16.0473 -0.999878 14.9473V2.94727C-0.999878 1.84727 -0.0998783 0.947266 1.00012 0.947266ZM9.00012 9.94727C9.55012 9.94727 10.0001 9.49727 10.0001 8.94727V4.94727C10.0001 4.39727 9.55012 3.94727 9.00012 3.94727C8.45012 3.94727 8.00012 4.39727 8.00012 4.94727V8.94727C8.00012 9.49727 8.45012 9.94727 9.00012 9.94727ZM8.00012 13.9473H10.0001V11.9473H8.00012V13.9473Z" fill="#3299FE"/>
</svg>
